{
    "asset": {
        "version": "2.0",
        "generator": "This 3D model is generated by KIRI Engine App"
    },
    "extensionsUsed": [
        "KHR_materials_pbrSpecularGlossiness",
        "FB_ngon_encoding"
    ],
    "accessors": [
        {
            "bufferView": 0,
            "byteOffset": 0,
            "componentType": 5126,
            "count": 2820,
            "type": "VEC3",
            "max": [
                0.2634440064430237,
                1.5193579196929932,
                0.9779170155525208
            ],
            "min": [
                -0.7129579782485962,
                -1.0593940019607545,
                -1.0444309711456299
            ]
        },
        {
            "bufferView": 1,
            "byteOffset": 0,
            "componentType": 5126,
            "count": 2820,
            "type": "VEC3",
            "max": [
                0.9999821186065674,
                0.9418764710426331,
                0.9998222589492798
            ],
            "min": [
                -0.47029218077659609,
                -0.999999463558197,
                -0.8238781094551086
            ]
        },
        {
            "bufferView": 2,
            "byteOffset": 0,
            "componentType": 5126,
            "count": 2820,
            "type": "VEC2",
            "max": [
                0.8829820156097412,
                0.9997879862785339
            ],
            "min": [
                0.000045000000682193789,
                0.00012499094009399414
            ]
        },
        {
            "bufferView": 3,
            "byteOffset": 0,
            "componentType": 5125,
            "count": 16002,
            "type": "SCALAR",
            "max": [
                2819
            ],
            "min": [
                0
            ]
        }
    ],
    "buffers": [
        {
            "byteLength": 154248,
            "uri": "3DModel.bin"
        }
    ],
    "bufferViews": [
        {
            "buffer": 0,
            "byteOffset": 0,
            "byteLength": 33840,
            "target": 34962
        },
        {
            "buffer": 0,
            "byteOffset": 33840,
            "byteLength": 33840,
            "target": 34962
        },
        {
            "buffer": 0,
            "byteOffset": 67680,
            "byteLength": 22560,
            "target": 34962
        },
        {
            "buffer": 0,
            "byteOffset": 90240,
            "byteLength": 64008,
            "target": 34963
        }
    ],
    "images": [
        {
            "uri": "data:image/jpeg;base64,"
        }
    ],
    "materials": [
        {
            "name": "Solid",
            "pbrMetallicRoughness": {
                "metallicFactor": 0.0
            },
            "extensions": {
                "KHR_materials_pbrSpecularGlossiness": {
                    "specularFactor": [
                        0.0,
                        0.0,
                        0.0
                    ],
                    "glossinessFactor": 0.0
                }
            }
        },
        {
            "name": "3DModel",
            "pbrMetallicRoughness": {
                "baseColorTexture": {
                    "index": 0
                },
                "metallicFactor": 0.0
            },
            "extensions": {
                "KHR_materials_pbrSpecularGlossiness": {
                    "specularFactor": [
                        0.0,
                        0.0,
                        0.0
                    ],
                    "glossinessFactor": 0.0,
                    "diffuseTexture": {
                        "index": 0
                    }
                }
            }
        }
    ],
    "meshes": [
        {
            "name": "defaultobject",
            "primitives": [
                {
                    "mode": 4,
                    "material": 1,
                    "indices": 3,
                    "attributes": {
                        "POSITION": 0,
                        "NORMAL": 1,
                        "TEXCOORD_0": 2
                    }
                }
            ]
        }
    ],
    "nodes": [
        {
            "name": "3DModel.obj",
            "children": [
                1
            ]
        },
        {
            "name": "defaultobject",
            "mesh": 0
        }
    ],
    "samplers": [
        {}
    ],
    "scenes": [
        {
            "nodes": [
                0
            ]
        }
    ],
    "textures": [
        {
            "source": 0,
            "sampler": 0
        }
    ],
    "scene": 0
}